<?xml version="1.0" encoding="UTF-8" ?>
<svg xmlns="http://www.w3.org/2000/svg" xmlns:xlink="http://www.w3.org/1999/xlink" height="100" width="100">
  <g id="qrcode:QR CODE">
    <rect x="0" y="0" width="100px" height="100px" style="fill:white;"/>
    <rect x="11.11" y="11.11" width="3.70" height="3.70" stroke="black" stroke-width="0.2" stroke-linecap="butt" fill="black"/>
    <rect x="11.11" y="14.81" width="3.70" height="3.70" stroke="black" stroke-width="0.2" stroke-linecap="butt" fill="black"/>
    <rect x="11.11" y="18.52" width="3.70" height="3.70" stroke="black" stroke-width="0.2" stroke-linecap="butt" fill="black"/>
    <rect x="11.11" y="22.22" width="3.70" height="3.70" stroke="black" stroke-width="0.2" stroke-linecap="butt" fill="black"/>
    <rect x="11.11" y="25.93" width="3.70" height="3.70" stroke="black" stroke-width="0.2" stroke-linecap="butt" fill="black"/>
    <rect x="11.11" y="29.63" width="3.70" height="3.70" stroke="black" stroke-width="0.2" stroke-linecap="butt" fill="black"/>
    <rect x="11.11" y="33.33" width="3.70" height="3.70" stroke="black" stroke-width="0.2" stroke-linecap="butt" fill="black"/>
    <rect x="11.11" y="40.74" width="3.70" height="3.70" stroke="black" stroke-width="0.2" stroke-linecap="butt" fill="black"/>
    <rect x="11.11" y="44.44" width="3.70" height="3.70" stroke="black" stroke-width="0.2" stroke-linecap="butt" fill="black"/>
    <rect x="11.11" y="51.85" width="3.70" height="3.70" stroke="black" stroke-width="0.2" stroke-linecap="butt" fill="black"/>
    <rect x="11.11" y="55.56" width="3.70" height="3.70" stroke="black" stroke-width="0.2" stroke-linecap="butt" fill="black"/>
    <rect x="11.11" y="62.96" width="3.70" height="3.70" stroke="black" stroke-width="0.2" stroke-linecap="butt" fill="black"/>
    <rect x="11.11" y="66.67" width="3.70" height="3.70" stroke="black" stroke-width="0.2" stroke-linecap="butt" fill="black"/>
    <rect x="11.11" y="70.37" width="3.70" height="3.70" stroke="black" stroke-width="0.2" stroke-linecap="butt" fill="black"/>
    <rect x="11.11" y="74.07" width="3.70" height="3.70" stroke="black" stroke-width="0.2" stroke-linecap="butt" fill="black"/>
    <rect x="11.11" y="77.78" width="3.70" height="3.70" stroke="black" stroke-width="0.2" stroke-linecap="butt" fill="black"/>
    <rect x="11.11" y="81.48" width="3.70" height="3.70" stroke="black" stroke-width="0.2" stroke-linecap="butt" fill="black"/>
    <rect x="11.11" y="85.19" width="3.70" height="3.70" stroke="black" stroke-width="0.2" stroke-linecap="butt" fill="black"/>
    <rect x="14.81" y="11.11" width="3.70" height="3.70" stroke="black" stroke-width="0.2" stroke-linecap="butt" fill="black"/>
    <rect x="14.81" y="33.33" width="3.70" height="3.70" stroke="black" stroke-width="0.2" stroke-linecap="butt" fill="black"/>
    <rect x="14.81" y="40.74" width="3.70" height="3.70" stroke="black" stroke-width="0.2" stroke-linecap="butt" fill="black"/>
    <rect x="14.81" y="48.15" width="3.70" height="3.70" stroke="black" stroke-width="0.2" stroke-linecap="butt" fill="black"/>
    <rect x="14.81" y="51.85" width="3.70" height="3.70" stroke="black" stroke-width="0.2" stroke-linecap="butt" fill="black"/>
    <rect x="14.81" y="62.96" width="3.70" height="3.70" stroke="black" stroke-width="0.2" stroke-linecap="butt" fill="black"/>
    <rect x="14.81" y="85.19" width="3.70" height="3.70" stroke="black" stroke-width="0.2" stroke-linecap="butt" fill="black"/>
    <rect x="18.52" y="11.11" width="3.70" height="3.70" stroke="black" stroke-width="0.2" stroke-linecap="butt" fill="black"/>
    <rect x="18.52" y="18.52" width="3.70" height="3.70" stroke="black" stroke-width="0.2" stroke-linecap="butt" fill="black"/>
    <rect x="18.52" y="22.22" width="3.70" height="3.70" stroke="black" stroke-width="0.2" stroke-linecap="butt" fill="black"/>
    <rect x="18.52" y="25.93" width="3.70" height="3.70" stroke="black" stroke-width="0.2" stroke-linecap="butt" fill="black"/>
    <rect x="18.52" y="33.33" width="3.70" height="3.70" stroke="black" stroke-width="0.2" stroke-linecap="butt" fill="black"/>
    <rect x="18.52" y="48.15" width="3.70" height="3.70" stroke="black" stroke-width="0.2" stroke-linecap="butt" fill="black"/>
    <rect x="18.52" y="51.85" width="3.70" height="3.70" stroke="black" stroke-width="0.2" stroke-linecap="butt" fill="black"/>
    <rect x="18.52" y="55.56" width="3.70" height="3.70" stroke="black" stroke-width="0.2" stroke-linecap="butt" fill="black"/>
    <rect x="18.52" y="62.96" width="3.70" height="3.70" stroke="black" stroke-width="0.2" stroke-linecap="butt" fill="black"/>
    <rect x="18.52" y="70.37" width="3.70" height="3.70" stroke="black" stroke-width="0.2" stroke-linecap="butt" fill="black"/>
    <rect x="18.52" y="74.07" width="3.70" height="3.70" stroke="black" stroke-width="0.2" stroke-linecap="butt" fill="black"/>
    <rect x="18.52" y="77.78" width="3.70" height="3.70" stroke="black" stroke-width="0.2" stroke-linecap="butt" fill="black"/>
    <rect x="18.52" y="85.19" width="3.70" height="3.70" stroke="black" stroke-width="0.2" stroke-linecap="butt" fill="black"/>
    <rect x="22.22" y="11.11" width="3.70" height="3.70" stroke="black" stroke-width="0.2" stroke-linecap="butt" fill="black"/>
    <rect x="22.22" y="18.52" width="3.70" height="3.70" stroke="black" stroke-width="0.2" stroke-linecap="butt" fill="black"/>
    <rect x="22.22" y="22.22" width="3.70" height="3.70" stroke="black" stroke-width="0.2" stroke-linecap="butt" fill="black"/>
    <rect x="22.22" y="25.93" width="3.70" height="3.70" stroke="black" stroke-width="0.2" stroke-linecap="butt" fill="black"/>
    <rect x="22.22" y="33.33" width="3.70" height="3.70" stroke="black" stroke-width="0.2" stroke-linecap="butt" fill="black"/>
    <rect x="22.22" y="44.44" width="3.70" height="3.70" stroke="black" stroke-width="0.2" stroke-linecap="butt" fill="black"/>
    <rect x="22.22" y="51.85" width="3.70" height="3.70" stroke="black" stroke-width="0.2" stroke-linecap="butt" fill="black"/>
    <rect x="22.22" y="55.56" width="3.70" height="3.70" stroke="black" stroke-width="0.2" stroke-linecap="butt" fill="black"/>
    <rect x="22.22" y="62.96" width="3.70" height="3.70" stroke="black" stroke-width="0.2" stroke-linecap="butt" fill="black"/>
    <rect x="22.22" y="70.37" width="3.70" height="3.70" stroke="black" stroke-width="0.2" stroke-linecap="butt" fill="black"/>
    <rect x="22.22" y="74.07" width="3.70" height="3.70" stroke="black" stroke-width="0.2" stroke-linecap="butt" fill="black"/>
    <rect x="22.22" y="77.78" width="3.70" height="3.70" stroke="black" stroke-width="0.2" stroke-linecap="butt" fill="black"/>
    <rect x="22.22" y="85.19" width="3.70" height="3.70" stroke="black" stroke-width="0.2" stroke-linecap="butt" fill="black"/>
    <rect x="25.93" y="11.11" width="3.70" height="3.70" stroke="black" stroke-width="0.2" stroke-linecap="butt" fill="black"/>
    <rect x="25.93" y="18.52" width="3.70" height="3.70" stroke="black" stroke-width="0.2" stroke-linecap="butt" fill="black"/>
    <rect x="25.93" y="22.22" width="3.70" height="3.70" stroke="black" stroke-width="0.2" stroke-linecap="butt" fill="black"/>
    <rect x="25.93" y="25.93" width="3.70" height="3.70" stroke="black" stroke-width="0.2" stroke-linecap="butt" fill="black"/>
    <rect x="25.93" y="33.33" width="3.70" height="3.70" stroke="black" stroke-width="0.2" stroke-linecap="butt" fill="black"/>
    <rect x="25.93" y="44.44" width="3.70" height="3.70" stroke="black" stroke-width="0.2" stroke-linecap="butt" fill="black"/>
    <rect x="25.93" y="48.15" width="3.70" height="3.70" stroke="black" stroke-width="0.2" stroke-linecap="butt" fill="black"/>
    <rect x="25.93" y="51.85" width="3.70" height="3.70" stroke="black" stroke-width="0.2" stroke-linecap="butt" fill="black"/>
    <rect x="25.93" y="55.56" width="3.70" height="3.70" stroke="black" stroke-width="0.2" stroke-linecap="butt" fill="black"/>
    <rect x="25.93" y="62.96" width="3.70" height="3.70" stroke="black" stroke-width="0.2" stroke-linecap="butt" fill="black"/>
    <rect x="25.93" y="70.37" width="3.70" height="3.70" stroke="black" stroke-width="0.2" stroke-linecap="butt" fill="black"/>
    <rect x="25.93" y="74.07" width="3.70" height="3.70" stroke="black" stroke-width="0.2" stroke-linecap="butt" fill="black"/>
    <rect x="25.93" y="77.78" width="3.70" height="3.70" stroke="black" stroke-width="0.2" stroke-linecap="butt" fill="black"/>
    <rect x="25.93" y="85.19" width="3.70" height="3.70" stroke="black" stroke-width="0.2" stroke-linecap="butt" fill="black"/>
    <rect x="29.63" y="11.11" width="3.70" height="3.70" stroke="black" stroke-width="0.2" stroke-linecap="butt" fill="black"/>
    <rect x="29.63" y="33.33" width="3.70" height="3.70" stroke="black" stroke-width="0.2" stroke-linecap="butt" fill="black"/>
    <rect x="29.63" y="40.74" width="3.70" height="3.70" stroke="black" stroke-width="0.2" stroke-linecap="butt" fill="black"/>
    <rect x="29.63" y="48.15" width="3.70" height="3.70" stroke="black" stroke-width="0.2" stroke-linecap="butt" fill="black"/>
    <rect x="29.63" y="51.85" width="3.70" height="3.70" stroke="black" stroke-width="0.2" stroke-linecap="butt" fill="black"/>
    <rect x="29.63" y="62.96" width="3.70" height="3.70" stroke="black" stroke-width="0.2" stroke-linecap="butt" fill="black"/>
    <rect x="29.63" y="85.19" width="3.70" height="3.70" stroke="black" stroke-width="0.2" stroke-linecap="butt" fill="black"/>
    <rect x="33.33" y="11.11" width="3.70" height="3.70" stroke="black" stroke-width="0.2" stroke-linecap="butt" fill="black"/>
    <rect x="33.33" y="14.81" width="3.70" height="3.70" stroke="black" stroke-width="0.2" stroke-linecap="butt" fill="black"/>
    <rect x="33.33" y="18.52" width="3.70" height="3.70" stroke="black" stroke-width="0.2" stroke-linecap="butt" fill="black"/>
    <rect x="33.33" y="22.22" width="3.70" height="3.70" stroke="black" stroke-width="0.2" stroke-linecap="butt" fill="black"/>
    <rect x="33.33" y="25.93" width="3.70" height="3.70" stroke="black" stroke-width="0.2" stroke-linecap="butt" fill="black"/>
    <rect x="33.33" y="29.63" width="3.70" height="3.70" stroke="black" stroke-width="0.2" stroke-linecap="butt" fill="black"/>
    <rect x="33.33" y="33.33" width="3.70" height="3.70" stroke="black" stroke-width="0.2" stroke-linecap="butt" fill="black"/>
    <rect x="33.33" y="40.74" width="3.70" height="3.70" stroke="black" stroke-width="0.2" stroke-linecap="butt" fill="black"/>
    <rect x="33.33" y="48.15" width="3.70" height="3.70" stroke="black" stroke-width="0.2" stroke-linecap="butt" fill="black"/>
    <rect x="33.33" y="55.56" width="3.70" height="3.70" stroke="black" stroke-width="0.2" stroke-linecap="butt" fill="black"/>
    <rect x="33.33" y="62.96" width="3.70" height="3.70" stroke="black" stroke-width="0.2" stroke-linecap="butt" fill="black"/>
    <rect x="33.33" y="66.67" width="3.70" height="3.70" stroke="black" stroke-width="0.2" stroke-linecap="butt" fill="black"/>
    <rect x="33.33" y="70.37" width="3.70" height="3.70" stroke="black" stroke-width="0.2" stroke-linecap="butt" fill="black"/>
    <rect x="33.33" y="74.07" width="3.70" height="3.70" stroke="black" stroke-width="0.2" stroke-linecap="butt" fill="black"/>
    <rect x="33.33" y="77.78" width="3.70" height="3.70" stroke="black" stroke-width="0.2" stroke-linecap="butt" fill="black"/>
    <rect x="33.33" y="81.48" width="3.70" height="3.70" stroke="black" stroke-width="0.2" stroke-linecap="butt" fill="black"/>
    <rect x="33.33" y="85.19" width="3.70" height="3.70" stroke="black" stroke-width="0.2" stroke-linecap="butt" fill="black"/>
    <rect x="37.04" y="40.74" width="3.70" height="3.70" stroke="black" stroke-width="0.2" stroke-linecap="butt" fill="black"/>
    <rect x="37.04" y="44.44" width="3.70" height="3.70" stroke="black" stroke-width="0.2" stroke-linecap="butt" fill="black"/>
    <rect x="37.04" y="48.15" width="3.70" height="3.70" stroke="black" stroke-width="0.2" stroke-linecap="butt" fill="black"/>
    <rect x="37.04" y="51.85" width="3.70" height="3.70" stroke="black" stroke-width="0.2" stroke-linecap="butt" fill="black"/>
    <rect x="40.74" y="22.22" width="3.70" height="3.70" stroke="black" stroke-width="0.2" stroke-linecap="butt" fill="black"/>
    <rect x="40.74" y="25.93" width="3.70" height="3.70" stroke="black" stroke-width="0.2" stroke-linecap="butt" fill="black"/>
    <rect x="40.74" y="33.33" width="3.70" height="3.70" stroke="black" stroke-width="0.2" stroke-linecap="butt" fill="black"/>
    <rect x="40.74" y="51.85" width="3.70" height="3.70" stroke="black" stroke-width="0.2" stroke-linecap="butt" fill="black"/>
    <rect x="40.74" y="59.26" width="3.70" height="3.70" stroke="black" stroke-width="0.2" stroke-linecap="butt" fill="black"/>
    <rect x="40.74" y="62.96" width="3.70" height="3.70" stroke="black" stroke-width="0.2" stroke-linecap="butt" fill="black"/>
    <rect x="40.74" y="66.67" width="3.70" height="3.70" stroke="black" stroke-width="0.2" stroke-linecap="butt" fill="black"/>
    <rect x="40.74" y="81.48" width="3.70" height="3.70" stroke="black" stroke-width="0.2" stroke-linecap="butt" fill="black"/>
    <rect x="40.74" y="85.19" width="3.70" height="3.70" stroke="black" stroke-width="0.2" stroke-linecap="butt" fill="black"/>
    <rect x="44.44" y="25.93" width="3.70" height="3.70" stroke="black" stroke-width="0.2" stroke-linecap="butt" fill="black"/>
    <rect x="44.44" y="29.63" width="3.70" height="3.70" stroke="black" stroke-width="0.2" stroke-linecap="butt" fill="black"/>
    <rect x="44.44" y="44.44" width="3.70" height="3.70" stroke="black" stroke-width="0.2" stroke-linecap="butt" fill="black"/>
    <rect x="44.44" y="62.96" width="3.70" height="3.70" stroke="black" stroke-width="0.2" stroke-linecap="butt" fill="black"/>
    <rect x="44.44" y="70.37" width="3.70" height="3.70" stroke="black" stroke-width="0.2" stroke-linecap="butt" fill="black"/>
    <rect x="44.44" y="77.78" width="3.70" height="3.70" stroke="black" stroke-width="0.2" stroke-linecap="butt" fill="black"/>
    <rect x="44.44" y="81.48" width="3.70" height="3.70" stroke="black" stroke-width="0.2" stroke-linecap="butt" fill="black"/>
    <rect x="48.15" y="14.81" width="3.70" height="3.70" stroke="black" stroke-width="0.2" stroke-linecap="butt" fill="black"/>
    <rect x="48.15" y="18.52" width="3.70" height="3.70" stroke="black" stroke-width="0.2" stroke-linecap="butt" fill="black"/>
    <rect x="48.15" y="22.22" width="3.70" height="3.70" stroke="black" stroke-width="0.2" stroke-linecap="butt" fill="black"/>
    <rect x="48.15" y="33.33" width="3.70" height="3.70" stroke="black" stroke-width="0.2" stroke-linecap="butt" fill="black"/>
    <rect x="48.15" y="51.85" width="3.70" height="3.70" stroke="black" stroke-width="0.2" stroke-linecap="butt" fill="black"/>
    <rect x="48.15" y="55.56" width="3.70" height="3.70" stroke="black" stroke-width="0.2" stroke-linecap="butt" fill="black"/>
    <rect x="48.15" y="62.96" width="3.70" height="3.70" stroke="black" stroke-width="0.2" stroke-linecap="butt" fill="black"/>
    <rect x="48.15" y="74.07" width="3.70" height="3.70" stroke="black" stroke-width="0.2" stroke-linecap="butt" fill="black"/>
    <rect x="51.85" y="18.52" width="3.70" height="3.70" stroke="black" stroke-width="0.2" stroke-linecap="butt" fill="black"/>
    <rect x="51.85" y="29.63" width="3.70" height="3.70" stroke="black" stroke-width="0.2" stroke-linecap="butt" fill="black"/>
    <rect x="51.85" y="40.74" width="3.70" height="3.70" stroke="black" stroke-width="0.2" stroke-linecap="butt" fill="black"/>
    <rect x="51.85" y="44.44" width="3.70" height="3.70" stroke="black" stroke-width="0.2" stroke-linecap="butt" fill="black"/>
    <rect x="51.85" y="51.85" width="3.70" height="3.70" stroke="black" stroke-width="0.2" stroke-linecap="butt" fill="black"/>
    <rect x="51.85" y="55.56" width="3.70" height="3.70" stroke="black" stroke-width="0.2" stroke-linecap="butt" fill="black"/>
    <rect x="51.85" y="62.96" width="3.70" height="3.70" stroke="black" stroke-width="0.2" stroke-linecap="butt" fill="black"/>
    <rect x="51.85" y="70.37" width="3.70" height="3.70" stroke="black" stroke-width="0.2" stroke-linecap="butt" fill="black"/>
    <rect x="51.85" y="74.07" width="3.70" height="3.70" stroke="black" stroke-width="0.2" stroke-linecap="butt" fill="black"/>
    <rect x="51.85" y="77.78" width="3.70" height="3.70" stroke="black" stroke-width="0.2" stroke-linecap="butt" fill="black"/>
    <rect x="51.85" y="81.48" width="3.70" height="3.70" stroke="black" stroke-width="0.2" stroke-linecap="butt" fill="black"/>
    <rect x="55.56" y="11.11" width="3.70" height="3.70" stroke="black" stroke-width="0.2" stroke-linecap="butt" fill="black"/>
    <rect x="55.56" y="14.81" width="3.70" height="3.70" stroke="black" stroke-width="0.2" stroke-linecap="butt" fill="black"/>
    <rect x="55.56" y="18.52" width="3.70" height="3.70" stroke="black" stroke-width="0.2" stroke-linecap="butt" fill="black"/>
    <rect x="55.56" y="22.22" width="3.70" height="3.70" stroke="black" stroke-width="0.2" stroke-linecap="butt" fill="black"/>
    <rect x="55.56" y="25.93" width="3.70" height="3.70" stroke="black" stroke-width="0.2" stroke-linecap="butt" fill="black"/>
    <rect x="55.56" y="33.33" width="3.70" height="3.70" stroke="black" stroke-width="0.2" stroke-linecap="butt" fill="black"/>
    <rect x="55.56" y="44.44" width="3.70" height="3.70" stroke="black" stroke-width="0.2" stroke-linecap="butt" fill="black"/>
    <rect x="55.56" y="48.15" width="3.70" height="3.70" stroke="black" stroke-width="0.2" stroke-linecap="butt" fill="black"/>
    <rect x="55.56" y="51.85" width="3.70" height="3.70" stroke="black" stroke-width="0.2" stroke-linecap="butt" fill="black"/>
    <rect x="55.56" y="55.56" width="3.70" height="3.70" stroke="black" stroke-width="0.2" stroke-linecap="butt" fill="black"/>
    <rect x="55.56" y="59.26" width="3.70" height="3.70" stroke="black" stroke-width="0.2" stroke-linecap="butt" fill="black"/>
    <rect x="55.56" y="74.07" width="3.70" height="3.70" stroke="black" stroke-width="0.2" stroke-linecap="butt" fill="black"/>
    <rect x="55.56" y="77.78" width="3.70" height="3.70" stroke="black" stroke-width="0.2" stroke-linecap="butt" fill="black"/>
    <rect x="55.56" y="81.48" width="3.70" height="3.70" stroke="black" stroke-width="0.2" stroke-linecap="butt" fill="black"/>
    <rect x="55.56" y="85.19" width="3.70" height="3.70" stroke="black" stroke-width="0.2" stroke-linecap="butt" fill="black"/>
    <rect x="59.26" y="44.44" width="3.70" height="3.70" stroke="black" stroke-width="0.2" stroke-linecap="butt" fill="black"/>
    <rect x="59.26" y="51.85" width="3.70" height="3.70" stroke="black" stroke-width="0.2" stroke-linecap="butt" fill="black"/>
    <rect x="59.26" y="55.56" width="3.70" height="3.70" stroke="black" stroke-width="0.2" stroke-linecap="butt" fill="black"/>
    <rect x="59.26" y="62.96" width="3.70" height="3.70" stroke="black" stroke-width="0.2" stroke-linecap="butt" fill="black"/>
    <rect x="59.26" y="70.37" width="3.70" height="3.70" stroke="black" stroke-width="0.2" stroke-linecap="butt" fill="black"/>
    <rect x="59.26" y="74.07" width="3.70" height="3.70" stroke="black" stroke-width="0.2" stroke-linecap="butt" fill="black"/>
    <rect x="59.26" y="77.78" width="3.70" height="3.70" stroke="black" stroke-width="0.2" stroke-linecap="butt" fill="black"/>
    <rect x="59.26" y="81.48" width="3.70" height="3.70" stroke="black" stroke-width="0.2" stroke-linecap="butt" fill="black"/>
    <rect x="62.96" y="11.11" width="3.70" height="3.70" stroke="black" stroke-width="0.2" stroke-linecap="butt" fill="black"/>
    <rect x="62.96" y="14.81" width="3.70" height="3.70" stroke="black" stroke-width="0.2" stroke-linecap="butt" fill="black"/>
    <rect x="62.96" y="18.52" width="3.70" height="3.70" stroke="black" stroke-width="0.2" stroke-linecap="butt" fill="black"/>
    <rect x="62.96" y="22.22" width="3.70" height="3.70" stroke="black" stroke-width="0.2" stroke-linecap="butt" fill="black"/>
    <rect x="62.96" y="25.93" width="3.70" height="3.70" stroke="black" stroke-width="0.2" stroke-linecap="butt" fill="black"/>
    <rect x="62.96" y="29.63" width="3.70" height="3.70" stroke="black" stroke-width="0.2" stroke-linecap="butt" fill="black"/>
    <rect x="62.96" y="33.33" width="3.70" height="3.70" stroke="black" stroke-width="0.2" stroke-linecap="butt" fill="black"/>
    <rect x="62.96" y="48.15" width="3.70" height="3.70" stroke="black" stroke-width="0.2" stroke-linecap="butt" fill="black"/>
    <rect x="62.96" y="51.85" width="3.70" height="3.70" stroke="black" stroke-width="0.2" stroke-linecap="butt" fill="black"/>
    <rect x="62.96" y="55.56" width="3.70" height="3.70" stroke="black" stroke-width="0.2" stroke-linecap="butt" fill="black"/>
    <rect x="62.96" y="66.67" width="3.70" height="3.70" stroke="black" stroke-width="0.2" stroke-linecap="butt" fill="black"/>
    <rect x="62.96" y="74.07" width="3.70" height="3.70" stroke="black" stroke-width="0.2" stroke-linecap="butt" fill="black"/>
    <rect x="62.96" y="81.48" width="3.70" height="3.70" stroke="black" stroke-width="0.2" stroke-linecap="butt" fill="black"/>
    <rect x="66.67" y="11.11" width="3.70" height="3.70" stroke="black" stroke-width="0.2" stroke-linecap="butt" fill="black"/>
    <rect x="66.67" y="33.33" width="3.70" height="3.70" stroke="black" stroke-width="0.2" stroke-linecap="butt" fill="black"/>
    <rect x="66.67" y="44.44" width="3.70" height="3.70" stroke="black" stroke-width="0.2" stroke-linecap="butt" fill="black"/>
    <rect x="66.67" y="48.15" width="3.70" height="3.70" stroke="black" stroke-width="0.2" stroke-linecap="butt" fill="black"/>
    <rect x="66.67" y="51.85" width="3.70" height="3.70" stroke="black" stroke-width="0.2" stroke-linecap="butt" fill="black"/>
    <rect x="66.67" y="55.56" width="3.70" height="3.70" stroke="black" stroke-width="0.2" stroke-linecap="butt" fill="black"/>
    <rect x="66.67" y="77.78" width="3.70" height="3.70" stroke="black" stroke-width="0.2" stroke-linecap="butt" fill="black"/>
    <rect x="70.37" y="11.11" width="3.70" height="3.70" stroke="black" stroke-width="0.2" stroke-linecap="butt" fill="black"/>
    <rect x="70.37" y="18.52" width="3.70" height="3.70" stroke="black" stroke-width="0.2" stroke-linecap="butt" fill="black"/>
    <rect x="70.37" y="22.22" width="3.70" height="3.70" stroke="black" stroke-width="0.2" stroke-linecap="butt" fill="black"/>
    <rect x="70.37" y="25.93" width="3.70" height="3.70" stroke="black" stroke-width="0.2" stroke-linecap="butt" fill="black"/>
    <rect x="70.37" y="33.33" width="3.70" height="3.70" stroke="black" stroke-width="0.2" stroke-linecap="butt" fill="black"/>
    <rect x="70.37" y="40.74" width="3.70" height="3.70" stroke="black" stroke-width="0.2" stroke-linecap="butt" fill="black"/>
    <rect x="70.37" y="44.44" width="3.70" height="3.70" stroke="black" stroke-width="0.2" stroke-linecap="butt" fill="black"/>
    <rect x="70.37" y="55.56" width="3.70" height="3.70" stroke="black" stroke-width="0.2" stroke-linecap="butt" fill="black"/>
    <rect x="70.37" y="62.96" width="3.70" height="3.70" stroke="black" stroke-width="0.2" stroke-linecap="butt" fill="black"/>
    <rect x="70.37" y="70.37" width="3.70" height="3.70" stroke="black" stroke-width="0.2" stroke-linecap="butt" fill="black"/>
    <rect x="70.37" y="77.78" width="3.70" height="3.70" stroke="black" stroke-width="0.2" stroke-linecap="butt" fill="black"/>
    <rect x="70.37" y="81.48" width="3.70" height="3.70" stroke="black" stroke-width="0.2" stroke-linecap="butt" fill="black"/>
    <rect x="70.37" y="85.19" width="3.70" height="3.70" stroke="black" stroke-width="0.2" stroke-linecap="butt" fill="black"/>
    <rect x="74.07" y="11.11" width="3.70" height="3.70" stroke="black" stroke-width="0.2" stroke-linecap="butt" fill="black"/>
    <rect x="74.07" y="18.52" width="3.70" height="3.70" stroke="black" stroke-width="0.2" stroke-linecap="butt" fill="black"/>
    <rect x="74.07" y="22.22" width="3.70" height="3.70" stroke="black" stroke-width="0.2" stroke-linecap="butt" fill="black"/>
    <rect x="74.07" y="25.93" width="3.70" height="3.70" stroke="black" stroke-width="0.2" stroke-linecap="butt" fill="black"/>
    <rect x="74.07" y="33.33" width="3.70" height="3.70" stroke="black" stroke-width="0.2" stroke-linecap="butt" fill="black"/>
    <rect x="74.07" y="40.74" width="3.70" height="3.70" stroke="black" stroke-width="0.2" stroke-linecap="butt" fill="black"/>
    <rect x="74.07" y="44.44" width="3.70" height="3.70" stroke="black" stroke-width="0.2" stroke-linecap="butt" fill="black"/>
    <rect x="74.07" y="51.85" width="3.70" height="3.70" stroke="black" stroke-width="0.2" stroke-linecap="butt" fill="black"/>
    <rect x="74.07" y="55.56" width="3.70" height="3.70" stroke="black" stroke-width="0.2" stroke-linecap="butt" fill="black"/>
    <rect x="74.07" y="62.96" width="3.70" height="3.70" stroke="black" stroke-width="0.2" stroke-linecap="butt" fill="black"/>
    <rect x="74.07" y="70.37" width="3.70" height="3.70" stroke="black" stroke-width="0.2" stroke-linecap="butt" fill="black"/>
    <rect x="74.07" y="81.48" width="3.70" height="3.70" stroke="black" stroke-width="0.2" stroke-linecap="butt" fill="black"/>
    <rect x="77.78" y="11.11" width="3.70" height="3.70" stroke="black" stroke-width="0.2" stroke-linecap="butt" fill="black"/>
    <rect x="77.78" y="18.52" width="3.70" height="3.70" stroke="black" stroke-width="0.2" stroke-linecap="butt" fill="black"/>
    <rect x="77.78" y="22.22" width="3.70" height="3.70" stroke="black" stroke-width="0.2" stroke-linecap="butt" fill="black"/>
    <rect x="77.78" y="25.93" width="3.70" height="3.70" stroke="black" stroke-width="0.2" stroke-linecap="butt" fill="black"/>
    <rect x="77.78" y="33.33" width="3.70" height="3.70" stroke="black" stroke-width="0.2" stroke-linecap="butt" fill="black"/>
    <rect x="77.78" y="48.15" width="3.70" height="3.70" stroke="black" stroke-width="0.2" stroke-linecap="butt" fill="black"/>
    <rect x="77.78" y="55.56" width="3.70" height="3.70" stroke="black" stroke-width="0.2" stroke-linecap="butt" fill="black"/>
    <rect x="77.78" y="59.26" width="3.70" height="3.70" stroke="black" stroke-width="0.2" stroke-linecap="butt" fill="black"/>
    <rect x="77.78" y="62.96" width="3.70" height="3.70" stroke="black" stroke-width="0.2" stroke-linecap="butt" fill="black"/>
    <rect x="77.78" y="66.67" width="3.70" height="3.70" stroke="black" stroke-width="0.2" stroke-linecap="butt" fill="black"/>
    <rect x="77.78" y="70.37" width="3.70" height="3.70" stroke="black" stroke-width="0.2" stroke-linecap="butt" fill="black"/>
    <rect x="77.78" y="74.07" width="3.70" height="3.70" stroke="black" stroke-width="0.2" stroke-linecap="butt" fill="black"/>
    <rect x="77.78" y="77.78" width="3.70" height="3.70" stroke="black" stroke-width="0.2" stroke-linecap="butt" fill="black"/>
    <rect x="77.78" y="81.48" width="3.70" height="3.70" stroke="black" stroke-width="0.2" stroke-linecap="butt" fill="black"/>
    <rect x="77.78" y="85.19" width="3.70" height="3.70" stroke="black" stroke-width="0.2" stroke-linecap="butt" fill="black"/>
    <rect x="81.48" y="11.11" width="3.70" height="3.70" stroke="black" stroke-width="0.2" stroke-linecap="butt" fill="black"/>
    <rect x="81.48" y="33.33" width="3.70" height="3.70" stroke="black" stroke-width="0.2" stroke-linecap="butt" fill="black"/>
    <rect x="81.48" y="44.44" width="3.70" height="3.70" stroke="black" stroke-width="0.2" stroke-linecap="butt" fill="black"/>
    <rect x="81.48" y="48.15" width="3.70" height="3.70" stroke="black" stroke-width="0.2" stroke-linecap="butt" fill="black"/>
    <rect x="81.48" y="55.56" width="3.70" height="3.70" stroke="black" stroke-width="0.2" stroke-linecap="butt" fill="black"/>
    <rect x="81.48" y="62.96" width="3.70" height="3.70" stroke="black" stroke-width="0.2" stroke-linecap="butt" fill="black"/>
    <rect x="81.48" y="66.67" width="3.70" height="3.70" stroke="black" stroke-width="0.2" stroke-linecap="butt" fill="black"/>
    <rect x="81.48" y="77.78" width="3.70" height="3.70" stroke="black" stroke-width="0.2" stroke-linecap="butt" fill="black"/>
    <rect x="85.19" y="11.11" width="3.70" height="3.70" stroke="black" stroke-width="0.2" stroke-linecap="butt" fill="black"/>
    <rect x="85.19" y="14.81" width="3.70" height="3.70" stroke="black" stroke-width="0.2" stroke-linecap="butt" fill="black"/>
    <rect x="85.19" y="18.52" width="3.70" height="3.70" stroke="black" stroke-width="0.2" stroke-linecap="butt" fill="black"/>
    <rect x="85.19" y="22.22" width="3.70" height="3.70" stroke="black" stroke-width="0.2" stroke-linecap="butt" fill="black"/>
    <rect x="85.19" y="25.93" width="3.70" height="3.70" stroke="black" stroke-width="0.2" stroke-linecap="butt" fill="black"/>
    <rect x="85.19" y="29.63" width="3.70" height="3.70" stroke="black" stroke-width="0.2" stroke-linecap="butt" fill="black"/>
    <rect x="85.19" y="33.33" width="3.70" height="3.70" stroke="black" stroke-width="0.2" stroke-linecap="butt" fill="black"/>
    <rect x="85.19" y="44.44" width="3.70" height="3.70" stroke="black" stroke-width="0.2" stroke-linecap="butt" fill="black"/>
    <rect x="85.19" y="48.15" width="3.70" height="3.70" stroke="black" stroke-width="0.2" stroke-linecap="butt" fill="black"/>
    <rect x="85.19" y="51.85" width="3.70" height="3.70" stroke="black" stroke-width="0.2" stroke-linecap="butt" fill="black"/>
    <rect x="85.19" y="62.96" width="3.70" height="3.70" stroke="black" stroke-width="0.2" stroke-linecap="butt" fill="black"/>
    <rect x="85.19" y="77.78" width="3.70" height="3.70" stroke="black" stroke-width="0.2" stroke-linecap="butt" fill="black"/>
    <rect x="85.19" y="81.48" width="3.70" height="3.70" stroke="black" stroke-width="0.2" stroke-linecap="butt" fill="black"/>
  </g>
</svg>
