<?xml version="1.0" encoding="UTF-8" ?>
<svg xmlns="http://www.w3.org/2000/svg" xmlns:xlink="http://www.w3.org/1999/xlink" height="300" width="300">
  <g id="qrcode:QR CODE">
    <rect x="0" y="0" width="300px" height="300px" style="fill:white;"/>
    <rect x="33.33" y="33.33" width="11.11" height="11.11" stroke="black" stroke-width="0.2" stroke-linecap="butt" fill="black"/>
    <rect x="33.33" y="44.44" width="11.11" height="11.11" stroke="black" stroke-width="0.2" stroke-linecap="butt" fill="black"/>
    <rect x="33.33" y="55.56" width="11.11" height="11.11" stroke="black" stroke-width="0.2" stroke-linecap="butt" fill="black"/>
    <rect x="33.33" y="66.67" width="11.11" height="11.11" stroke="black" stroke-width="0.2" stroke-linecap="butt" fill="black"/>
    <rect x="33.33" y="77.78" width="11.11" height="11.11" stroke="black" stroke-width="0.2" stroke-linecap="butt" fill="black"/>
    <rect x="33.33" y="88.89" width="11.11" height="11.11" stroke="black" stroke-width="0.2" stroke-linecap="butt" fill="black"/>
    <rect x="33.33" y="100.00" width="11.11" height="11.11" stroke="black" stroke-width="0.2" stroke-linecap="butt" fill="black"/>
    <rect x="33.33" y="122.22" width="11.11" height="11.11" stroke="black" stroke-width="0.2" stroke-linecap="butt" fill="black"/>
    <rect x="33.33" y="133.33" width="11.11" height="11.11" stroke="black" stroke-width="0.2" stroke-linecap="butt" fill="black"/>
    <rect x="33.33" y="155.56" width="11.11" height="11.11" stroke="black" stroke-width="0.2" stroke-linecap="butt" fill="black"/>
    <rect x="33.33" y="166.67" width="11.11" height="11.11" stroke="black" stroke-width="0.2" stroke-linecap="butt" fill="black"/>
    <rect x="33.33" y="188.89" width="11.11" height="11.11" stroke="black" stroke-width="0.2" stroke-linecap="butt" fill="black"/>
    <rect x="33.33" y="200.00" width="11.11" height="11.11" stroke="black" stroke-width="0.2" stroke-linecap="butt" fill="black"/>
    <rect x="33.33" y="211.11" width="11.11" height="11.11" stroke="black" stroke-width="0.2" stroke-linecap="butt" fill="black"/>
    <rect x="33.33" y="222.22" width="11.11" height="11.11" stroke="black" stroke-width="0.2" stroke-linecap="butt" fill="black"/>
    <rect x="33.33" y="233.33" width="11.11" height="11.11" stroke="black" stroke-width="0.2" stroke-linecap="butt" fill="black"/>
    <rect x="33.33" y="244.44" width="11.11" height="11.11" stroke="black" stroke-width="0.2" stroke-linecap="butt" fill="black"/>
    <rect x="33.33" y="255.56" width="11.11" height="11.11" stroke="black" stroke-width="0.2" stroke-linecap="butt" fill="black"/>
    <rect x="44.44" y="33.33" width="11.11" height="11.11" stroke="black" stroke-width="0.2" stroke-linecap="butt" fill="black"/>
    <rect x="44.44" y="100.00" width="11.11" height="11.11" stroke="black" stroke-width="0.2" stroke-linecap="butt" fill="black"/>
    <rect x="44.44" y="122.22" width="11.11" height="11.11" stroke="black" stroke-width="0.2" stroke-linecap="butt" fill="black"/>
    <rect x="44.44" y="144.44" width="11.11" height="11.11" stroke="black" stroke-width="0.2" stroke-linecap="butt" fill="black"/>
    <rect x="44.44" y="155.56" width="11.11" height="11.11" stroke="black" stroke-width="0.2" stroke-linecap="butt" fill="black"/>
    <rect x="44.44" y="188.89" width="11.11" height="11.11" stroke="black" stroke-width="0.2" stroke-linecap="butt" fill="black"/>
    <rect x="44.44" y="255.56" width="11.11" height="11.11" stroke="black" stroke-width="0.2" stroke-linecap="butt" fill="black"/>
    <rect x="55.56" y="33.33" width="11.11" height="11.11" stroke="black" stroke-width="0.2" stroke-linecap="butt" fill="black"/>
    <rect x="55.56" y="55.56" width="11.11" height="11.11" stroke="black" stroke-width="0.2" stroke-linecap="butt" fill="black"/>
    <rect x="55.56" y="66.67" width="11.11" height="11.11" stroke="black" stroke-width="0.2" stroke-linecap="butt" fill="black"/>
    <rect x="55.56" y="77.78" width="11.11" height="11.11" stroke="black" stroke-width="0.2" stroke-linecap="butt" fill="black"/>
    <rect x="55.56" y="100.00" width="11.11" height="11.11" stroke="black" stroke-width="0.2" stroke-linecap="butt" fill="black"/>
    <rect x="55.56" y="144.44" width="11.11" height="11.11" stroke="black" stroke-width="0.2" stroke-linecap="butt" fill="black"/>
    <rect x="55.56" y="155.56" width="11.11" height="11.11" stroke="black" stroke-width="0.2" stroke-linecap="butt" fill="black"/>
    <rect x="55.56" y="166.67" width="11.11" height="11.11" stroke="black" stroke-width="0.2" stroke-linecap="butt" fill="black"/>
    <rect x="55.56" y="188.89" width="11.11" height="11.11" stroke="black" stroke-width="0.2" stroke-linecap="butt" fill="black"/>
    <rect x="55.56" y="211.11" width="11.11" height="11.11" stroke="black" stroke-width="0.2" stroke-linecap="butt" fill="black"/>
    <rect x="55.56" y="222.22" width="11.11" height="11.11" stroke="black" stroke-width="0.2" stroke-linecap="butt" fill="black"/>
    <rect x="55.56" y="233.33" width="11.11" height="11.11" stroke="black" stroke-width="0.2" stroke-linecap="butt" fill="black"/>
    <rect x="55.56" y="255.56" width="11.11" height="11.11" stroke="black" stroke-width="0.2" stroke-linecap="butt" fill="black"/>
    <rect x="66.67" y="33.33" width="11.11" height="11.11" stroke="black" stroke-width="0.2" stroke-linecap="butt" fill="black"/>
    <rect x="66.67" y="55.56" width="11.11" height="11.11" stroke="black" stroke-width="0.2" stroke-linecap="butt" fill="black"/>
    <rect x="66.67" y="66.67" width="11.11" height="11.11" stroke="black" stroke-width="0.2" stroke-linecap="butt" fill="black"/>
    <rect x="66.67" y="77.78" width="11.11" height="11.11" stroke="black" stroke-width="0.2" stroke-linecap="butt" fill="black"/>
    <rect x="66.67" y="100.00" width="11.11" height="11.11" stroke="black" stroke-width="0.2" stroke-linecap="butt" fill="black"/>
    <rect x="66.67" y="133.33" width="11.11" height="11.11" stroke="black" stroke-width="0.2" stroke-linecap="butt" fill="black"/>
    <rect x="66.67" y="155.56" width="11.11" height="11.11" stroke="black" stroke-width="0.2" stroke-linecap="butt" fill="black"/>
    <rect x="66.67" y="166.67" width="11.11" height="11.11" stroke="black" stroke-width="0.2" stroke-linecap="butt" fill="black"/>
    <rect x="66.67" y="188.89" width="11.11" height="11.11" stroke="black" stroke-width="0.2" stroke-linecap="butt" fill="black"/>
    <rect x="66.67" y="211.11" width="11.11" height="11.11" stroke="black" stroke-width="0.2" stroke-linecap="butt" fill="black"/>
    <rect x="66.67" y="222.22" width="11.11" height="11.11" stroke="black" stroke-width="0.2" stroke-linecap="butt" fill="black"/>
    <rect x="66.67" y="233.33" width="11.11" height="11.11" stroke="black" stroke-width="0.2" stroke-linecap="butt" fill="black"/>
    <rect x="66.67" y="255.56" width="11.11" height="11.11" stroke="black" stroke-width="0.2" stroke-linecap="butt" fill="black"/>
    <rect x="77.78" y="33.33" width="11.11" height="11.11" stroke="black" stroke-width="0.2" stroke-linecap="butt" fill="black"/>
    <rect x="77.78" y="55.56" width="11.11" height="11.11" stroke="black" stroke-width="0.2" stroke-linecap="butt" fill="black"/>
    <rect x="77.78" y="66.67" width="11.11" height="11.11" stroke="black" stroke-width="0.2" stroke-linecap="butt" fill="black"/>
    <rect x="77.78" y="77.78" width="11.11" height="11.11" stroke="black" stroke-width="0.2" stroke-linecap="butt" fill="black"/>
    <rect x="77.78" y="100.00" width="11.11" height="11.11" stroke="black" stroke-width="0.2" stroke-linecap="butt" fill="black"/>
    <rect x="77.78" y="133.33" width="11.11" height="11.11" stroke="black" stroke-width="0.2" stroke-linecap="butt" fill="black"/>
    <rect x="77.78" y="144.44" width="11.11" height="11.11" stroke="black" stroke-width="0.2" stroke-linecap="butt" fill="black"/>
    <rect x="77.78" y="155.56" width="11.11" height="11.11" stroke="black" stroke-width="0.2" stroke-linecap="butt" fill="black"/>
    <rect x="77.78" y="166.67" width="11.11" height="11.11" stroke="black" stroke-width="0.2" stroke-linecap="butt" fill="black"/>
    <rect x="77.78" y="188.89" width="11.11" height="11.11" stroke="black" stroke-width="0.2" stroke-linecap="butt" fill="black"/>
    <rect x="77.78" y="211.11" width="11.11" height="11.11" stroke="black" stroke-width="0.2" stroke-linecap="butt" fill="black"/>
    <rect x="77.78" y="222.22" width="11.11" height="11.11" stroke="black" stroke-width="0.2" stroke-linecap="butt" fill="black"/>
    <rect x="77.78" y="233.33" width="11.11" height="11.11" stroke="black" stroke-width="0.2" stroke-linecap="butt" fill="black"/>
    <rect x="77.78" y="255.56" width="11.11" height="11.11" stroke="black" stroke-width="0.2" stroke-linecap="butt" fill="black"/>
    <rect x="88.89" y="33.33" width="11.11" height="11.11" stroke="black" stroke-width="0.2" stroke-linecap="butt" fill="black"/>
    <rect x="88.89" y="100.00" width="11.11" height="11.11" stroke="black" stroke-width="0.2" stroke-linecap="butt" fill="black"/>
    <rect x="88.89" y="122.22" width="11.11" height="11.11" stroke="black" stroke-width="0.2" stroke-linecap="butt" fill="black"/>
    <rect x="88.89" y="144.44" width="11.11" height="11.11" stroke="black" stroke-width="0.2" stroke-linecap="butt" fill="black"/>
    <rect x="88.89" y="155.56" width="11.11" height="11.11" stroke="black" stroke-width="0.2" stroke-linecap="butt" fill="black"/>
    <rect x="88.89" y="188.89" width="11.11" height="11.11" stroke="black" stroke-width="0.2" stroke-linecap="butt" fill="black"/>
    <rect x="88.89" y="255.56" width="11.11" height="11.11" stroke="black" stroke-width="0.2" stroke-linecap="butt" fill="black"/>
    <rect x="100.00" y="33.33" width="11.11" height="11.11" stroke="black" stroke-width="0.2" stroke-linecap="butt" fill="black"/>
    <rect x="100.00" y="44.44" width="11.11" height="11.11" stroke="black" stroke-width="0.2" stroke-linecap="butt" fill="black"/>
    <rect x="100.00" y="55.56" width="11.11" height="11.11" stroke="black" stroke-width="0.2" stroke-linecap="butt" fill="black"/>
    <rect x="100.00" y="66.67" width="11.11" height="11.11" stroke="black" stroke-width="0.2" stroke-linecap="butt" fill="black"/>
    <rect x="100.00" y="77.78" width="11.11" height="11.11" stroke="black" stroke-width="0.2" stroke-linecap="butt" fill="black"/>
    <rect x="100.00" y="88.89" width="11.11" height="11.11" stroke="black" stroke-width="0.2" stroke-linecap="butt" fill="black"/>
    <rect x="100.00" y="100.00" width="11.11" height="11.11" stroke="black" stroke-width="0.2" stroke-linecap="butt" fill="black"/>
    <rect x="100.00" y="122.22" width="11.11" height="11.11" stroke="black" stroke-width="0.2" stroke-linecap="butt" fill="black"/>
    <rect x="100.00" y="144.44" width="11.11" height="11.11" stroke="black" stroke-width="0.2" stroke-linecap="butt" fill="black"/>
    <rect x="100.00" y="166.67" width="11.11" height="11.11" stroke="black" stroke-width="0.2" stroke-linecap="butt" fill="black"/>
    <rect x="100.00" y="188.89" width="11.11" height="11.11" stroke="black" stroke-width="0.2" stroke-linecap="butt" fill="black"/>
    <rect x="100.00" y="200.00" width="11.11" height="11.11" stroke="black" stroke-width="0.2" stroke-linecap="butt" fill="black"/>
    <rect x="100.00" y="211.11" width="11.11" height="11.11" stroke="black" stroke-width="0.2" stroke-linecap="butt" fill="black"/>
    <rect x="100.00" y="222.22" width="11.11" height="11.11" stroke="black" stroke-width="0.2" stroke-linecap="butt" fill="black"/>
    <rect x="100.00" y="233.33" width="11.11" height="11.11" stroke="black" stroke-width="0.2" stroke-linecap="butt" fill="black"/>
    <rect x="100.00" y="244.44" width="11.11" height="11.11" stroke="black" stroke-width="0.2" stroke-linecap="butt" fill="black"/>
    <rect x="100.00" y="255.56" width="11.11" height="11.11" stroke="black" stroke-width="0.2" stroke-linecap="butt" fill="black"/>
    <rect x="111.11" y="122.22" width="11.11" height="11.11" stroke="black" stroke-width="0.2" stroke-linecap="butt" fill="black"/>
    <rect x="111.11" y="133.33" width="11.11" height="11.11" stroke="black" stroke-width="0.2" stroke-linecap="butt" fill="black"/>
    <rect x="111.11" y="144.44" width="11.11" height="11.11" stroke="black" stroke-width="0.2" stroke-linecap="butt" fill="black"/>
    <rect x="111.11" y="155.56" width="11.11" height="11.11" stroke="black" stroke-width="0.2" stroke-linecap="butt" fill="black"/>
    <rect x="122.22" y="66.67" width="11.11" height="11.11" stroke="black" stroke-width="0.2" stroke-linecap="butt" fill="black"/>
    <rect x="122.22" y="77.78" width="11.11" height="11.11" stroke="black" stroke-width="0.2" stroke-linecap="butt" fill="black"/>
    <rect x="122.22" y="100.00" width="11.11" height="11.11" stroke="black" stroke-width="0.2" stroke-linecap="butt" fill="black"/>
    <rect x="122.22" y="155.56" width="11.11" height="11.11" stroke="black" stroke-width="0.2" stroke-linecap="butt" fill="black"/>
    <rect x="122.22" y="177.78" width="11.11" height="11.11" stroke="black" stroke-width="0.2" stroke-linecap="butt" fill="black"/>
    <rect x="122.22" y="188.89" width="11.11" height="11.11" stroke="black" stroke-width="0.2" stroke-linecap="butt" fill="black"/>
    <rect x="122.22" y="200.00" width="11.11" height="11.11" stroke="black" stroke-width="0.2" stroke-linecap="butt" fill="black"/>
    <rect x="122.22" y="244.44" width="11.11" height="11.11" stroke="black" stroke-width="0.2" stroke-linecap="butt" fill="black"/>
    <rect x="122.22" y="255.56" width="11.11" height="11.11" stroke="black" stroke-width="0.2" stroke-linecap="butt" fill="black"/>
    <rect x="133.33" y="77.78" width="11.11" height="11.11" stroke="black" stroke-width="0.2" stroke-linecap="butt" fill="black"/>
    <rect x="133.33" y="88.89" width="11.11" height="11.11" stroke="black" stroke-width="0.2" stroke-linecap="butt" fill="black"/>
    <rect x="133.33" y="133.33" width="11.11" height="11.11" stroke="black" stroke-width="0.2" stroke-linecap="butt" fill="black"/>
    <rect x="133.33" y="188.89" width="11.11" height="11.11" stroke="black" stroke-width="0.2" stroke-linecap="butt" fill="black"/>
    <rect x="133.33" y="211.11" width="11.11" height="11.11" stroke="black" stroke-width="0.2" stroke-linecap="butt" fill="black"/>
    <rect x="133.33" y="233.33" width="11.11" height="11.11" stroke="black" stroke-width="0.2" stroke-linecap="butt" fill="black"/>
    <rect x="133.33" y="244.44" width="11.11" height="11.11" stroke="black" stroke-width="0.2" stroke-linecap="butt" fill="black"/>
    <rect x="144.44" y="44.44" width="11.11" height="11.11" stroke="black" stroke-width="0.2" stroke-linecap="butt" fill="black"/>
    <rect x="144.44" y="55.56" width="11.11" height="11.11" stroke="black" stroke-width="0.2" stroke-linecap="butt" fill="black"/>
    <rect x="144.44" y="66.67" width="11.11" height="11.11" stroke="black" stroke-width="0.2" stroke-linecap="butt" fill="black"/>
    <rect x="144.44" y="100.00" width="11.11" height="11.11" stroke="black" stroke-width="0.2" stroke-linecap="butt" fill="black"/>
    <rect x="144.44" y="155.56" width="11.11" height="11.11" stroke="black" stroke-width="0.2" stroke-linecap="butt" fill="black"/>
    <rect x="144.44" y="166.67" width="11.11" height="11.11" stroke="black" stroke-width="0.2" stroke-linecap="butt" fill="black"/>
    <rect x="144.44" y="188.89" width="11.11" height="11.11" stroke="black" stroke-width="0.2" stroke-linecap="butt" fill="black"/>
    <rect x="144.44" y="222.22" width="11.11" height="11.11" stroke="black" stroke-width="0.2" stroke-linecap="butt" fill="black"/>
    <rect x="155.56" y="55.56" width="11.11" height="11.11" stroke="black" stroke-width="0.2" stroke-linecap="butt" fill="black"/>
    <rect x="155.56" y="88.89" width="11.11" height="11.11" stroke="black" stroke-width="0.2" stroke-linecap="butt" fill="black"/>
    <rect x="155.56" y="122.22" width="11.11" height="11.11" stroke="black" stroke-width="0.2" stroke-linecap="butt" fill="black"/>
    <rect x="155.56" y="133.33" width="11.11" height="11.11" stroke="black" stroke-width="0.2" stroke-linecap="butt" fill="black"/>
    <rect x="155.56" y="155.56" width="11.11" height="11.11" stroke="black" stroke-width="0.2" stroke-linecap="butt" fill="black"/>
    <rect x="155.56" y="166.67" width="11.11" height="11.11" stroke="black" stroke-width="0.2" stroke-linecap="butt" fill="black"/>
    <rect x="155.56" y="188.89" width="11.11" height="11.11" stroke="black" stroke-width="0.2" stroke-linecap="butt" fill="black"/>
    <rect x="155.56" y="211.11" width="11.11" height="11.11" stroke="black" stroke-width="0.2" stroke-linecap="butt" fill="black"/>
    <rect x="155.56" y="222.22" width="11.11" height="11.11" stroke="black" stroke-width="0.2" stroke-linecap="butt" fill="black"/>
    <rect x="155.56" y="233.33" width="11.11" height="11.11" stroke="black" stroke-width="0.2" stroke-linecap="butt" fill="black"/>
    <rect x="155.56" y="244.44" width="11.11" height="11.11" stroke="black" stroke-width="0.2" stroke-linecap="butt" fill="black"/>
    <rect x="166.67" y="33.33" width="11.11" height="11.11" stroke="black" stroke-width="0.2" stroke-linecap="butt" fill="black"/>
    <rect x="166.67" y="44.44" width="11.11" height="11.11" stroke="black" stroke-width="0.2" stroke-linecap="butt" fill="black"/>
    <rect x="166.67" y="55.56" width="11.11" height="11.11" stroke="black" stroke-width="0.2" stroke-linecap="butt" fill="black"/>
    <rect x="166.67" y="66.67" width="11.11" height="11.11" stroke="black" stroke-width="0.2" stroke-linecap="butt" fill="black"/>
    <rect x="166.67" y="77.78" width="11.11" height="11.11" stroke="black" stroke-width="0.2" stroke-linecap="butt" fill="black"/>
    <rect x="166.67" y="100.00" width="11.11" height="11.11" stroke="black" stroke-width="0.2" stroke-linecap="butt" fill="black"/>
    <rect x="166.67" y="133.33" width="11.11" height="11.11" stroke="black" stroke-width="0.2" stroke-linecap="butt" fill="black"/>
    <rect x="166.67" y="144.44" width="11.11" height="11.11" stroke="black" stroke-width="0.2" stroke-linecap="butt" fill="black"/>
    <rect x="166.67" y="155.56" width="11.11" height="11.11" stroke="black" stroke-width="0.2" stroke-linecap="butt" fill="black"/>
    <rect x="166.67" y="166.67" width="11.11" height="11.11" stroke="black" stroke-width="0.2" stroke-linecap="butt" fill="black"/>
    <rect x="166.67" y="177.78" width="11.11" height="11.11" stroke="black" stroke-width="0.2" stroke-linecap="butt" fill="black"/>
    <rect x="166.67" y="222.22" width="11.11" height="11.11" stroke="black" stroke-width="0.2" stroke-linecap="butt" fill="black"/>
    <rect x="166.67" y="233.33" width="11.11" height="11.11" stroke="black" stroke-width="0.2" stroke-linecap="butt" fill="black"/>
    <rect x="166.67" y="244.44" width="11.11" height="11.11" stroke="black" stroke-width="0.2" stroke-linecap="butt" fill="black"/>
    <rect x="166.67" y="255.56" width="11.11" height="11.11" stroke="black" stroke-width="0.2" stroke-linecap="butt" fill="black"/>
    <rect x="177.78" y="133.33" width="11.11" height="11.11" stroke="black" stroke-width="0.2" stroke-linecap="butt" fill="black"/>
    <rect x="177.78" y="155.56" width="11.11" height="11.11" stroke="black" stroke-width="0.2" stroke-linecap="butt" fill="black"/>
    <rect x="177.78" y="166.67" width="11.11" height="11.11" stroke="black" stroke-width="0.2" stroke-linecap="butt" fill="black"/>
    <rect x="177.78" y="188.89" width="11.11" height="11.11" stroke="black" stroke-width="0.2" stroke-linecap="butt" fill="black"/>
    <rect x="177.78" y="211.11" width="11.11" height="11.11" stroke="black" stroke-width="0.2" stroke-linecap="butt" fill="black"/>
    <rect x="177.78" y="222.22" width="11.11" height="11.11" stroke="black" stroke-width="0.2" stroke-linecap="butt" fill="black"/>
    <rect x="177.78" y="233.33" width="11.11" height="11.11" stroke="black" stroke-width="0.2" stroke-linecap="butt" fill="black"/>
    <rect x="177.78" y="244.44" width="11.11" height="11.11" stroke="black" stroke-width="0.2" stroke-linecap="butt" fill="black"/>
    <rect x="188.89" y="33.33" width="11.11" height="11.11" stroke="black" stroke-width="0.2" stroke-linecap="butt" fill="black"/>
    <rect x="188.89" y="44.44" width="11.11" height="11.11" stroke="black" stroke-width="0.2" stroke-linecap="butt" fill="black"/>
    <rect x="188.89" y="55.56" width="11.11" height="11.11" stroke="black" stroke-width="0.2" stroke-linecap="butt" fill="black"/>
    <rect x="188.89" y="66.67" width="11.11" height="11.11" stroke="black" stroke-width="0.2" stroke-linecap="butt" fill="black"/>
    <rect x="188.89" y="77.78" width="11.11" height="11.11" stroke="black" stroke-width="0.2" stroke-linecap="butt" fill="black"/>
    <rect x="188.89" y="88.89" width="11.11" height="11.11" stroke="black" stroke-width="0.2" stroke-linecap="butt" fill="black"/>
    <rect x="188.89" y="100.00" width="11.11" height="11.11" stroke="black" stroke-width="0.2" stroke-linecap="butt" fill="black"/>
    <rect x="188.89" y="144.44" width="11.11" height="11.11" stroke="black" stroke-width="0.2" stroke-linecap="butt" fill="black"/>
    <rect x="188.89" y="155.56" width="11.11" height="11.11" stroke="black" stroke-width="0.2" stroke-linecap="butt" fill="black"/>
    <rect x="188.89" y="166.67" width="11.11" height="11.11" stroke="black" stroke-width="0.2" stroke-linecap="butt" fill="black"/>
    <rect x="188.89" y="200.00" width="11.11" height="11.11" stroke="black" stroke-width="0.2" stroke-linecap="butt" fill="black"/>
    <rect x="188.89" y="222.22" width="11.11" height="11.11" stroke="black" stroke-width="0.2" stroke-linecap="butt" fill="black"/>
    <rect x="188.89" y="244.44" width="11.11" height="11.11" stroke="black" stroke-width="0.2" stroke-linecap="butt" fill="black"/>
    <rect x="200.00" y="33.33" width="11.11" height="11.11" stroke="black" stroke-width="0.2" stroke-linecap="butt" fill="black"/>
    <rect x="200.00" y="100.00" width="11.11" height="11.11" stroke="black" stroke-width="0.2" stroke-linecap="butt" fill="black"/>
    <rect x="200.00" y="133.33" width="11.11" height="11.11" stroke="black" stroke-width="0.2" stroke-linecap="butt" fill="black"/>
    <rect x="200.00" y="144.44" width="11.11" height="11.11" stroke="black" stroke-width="0.2" stroke-linecap="butt" fill="black"/>
    <rect x="200.00" y="155.56" width="11.11" height="11.11" stroke="black" stroke-width="0.2" stroke-linecap="butt" fill="black"/>
    <rect x="200.00" y="166.67" width="11.11" height="11.11" stroke="black" stroke-width="0.2" stroke-linecap="butt" fill="black"/>
    <rect x="200.00" y="233.33" width="11.11" height="11.11" stroke="black" stroke-width="0.2" stroke-linecap="butt" fill="black"/>
    <rect x="211.11" y="33.33" width="11.11" height="11.11" stroke="black" stroke-width="0.2" stroke-linecap="butt" fill="black"/>
    <rect x="211.11" y="55.56" width="11.11" height="11.11" stroke="black" stroke-width="0.2" stroke-linecap="butt" fill="black"/>
    <rect x="211.11" y="66.67" width="11.11" height="11.11" stroke="black" stroke-width="0.2" stroke-linecap="butt" fill="black"/>
    <rect x="211.11" y="77.78" width="11.11" height="11.11" stroke="black" stroke-width="0.2" stroke-linecap="butt" fill="black"/>
    <rect x="211.11" y="100.00" width="11.11" height="11.11" stroke="black" stroke-width="0.2" stroke-linecap="butt" fill="black"/>
    <rect x="211.11" y="122.22" width="11.11" height="11.11" stroke="black" stroke-width="0.2" stroke-linecap="butt" fill="black"/>
    <rect x="211.11" y="133.33" width="11.11" height="11.11" stroke="black" stroke-width="0.2" stroke-linecap="butt" fill="black"/>
    <rect x="211.11" y="166.67" width="11.11" height="11.11" stroke="black" stroke-width="0.2" stroke-linecap="butt" fill="black"/>
    <rect x="211.11" y="188.89" width="11.11" height="11.11" stroke="black" stroke-width="0.2" stroke-linecap="butt" fill="black"/>
    <rect x="211.11" y="211.11" width="11.11" height="11.11" stroke="black" stroke-width="0.2" stroke-linecap="butt" fill="black"/>
    <rect x="211.11" y="233.33" width="11.11" height="11.11" stroke="black" stroke-width="0.2" stroke-linecap="butt" fill="black"/>
    <rect x="211.11" y="244.44" width="11.11" height="11.11" stroke="black" stroke-width="0.2" stroke-linecap="butt" fill="black"/>
    <rect x="211.11" y="255.56" width="11.11" height="11.11" stroke="black" stroke-width="0.2" stroke-linecap="butt" fill="black"/>
    <rect x="222.22" y="33.33" width="11.11" height="11.11" stroke="black" stroke-width="0.2" stroke-linecap="butt" fill="black"/>
    <rect x="222.22" y="55.56" width="11.11" height="11.11" stroke="black" stroke-width="0.2" stroke-linecap="butt" fill="black"/>
    <rect x="222.22" y="66.67" width="11.11" height="11.11" stroke="black" stroke-width="0.2" stroke-linecap="butt" fill="black"/>
    <rect x="222.22" y="77.78" width="11.11" height="11.11" stroke="black" stroke-width="0.2" stroke-linecap="butt" fill="black"/>
    <rect x="222.22" y="100.00" width="11.11" height="11.11" stroke="black" stroke-width="0.2" stroke-linecap="butt" fill="black"/>
    <rect x="222.22" y="122.22" width="11.11" height="11.11" stroke="black" stroke-width="0.2" stroke-linecap="butt" fill="black"/>
    <rect x="222.22" y="133.33" width="11.11" height="11.11" stroke="black" stroke-width="0.2" stroke-linecap="butt" fill="black"/>
    <rect x="222.22" y="155.56" width="11.11" height="11.11" stroke="black" stroke-width="0.2" stroke-linecap="butt" fill="black"/>
    <rect x="222.22" y="166.67" width="11.11" height="11.11" stroke="black" stroke-width="0.2" stroke-linecap="butt" fill="black"/>
    <rect x="222.22" y="188.89" width="11.11" height="11.11" stroke="black" stroke-width="0.2" stroke-linecap="butt" fill="black"/>
    <rect x="222.22" y="211.11" width="11.11" height="11.11" stroke="black" stroke-width="0.2" stroke-linecap="butt" fill="black"/>
    <rect x="222.22" y="244.44" width="11.11" height="11.11" stroke="black" stroke-width="0.2" stroke-linecap="butt" fill="black"/>
    <rect x="233.33" y="33.33" width="11.11" height="11.11" stroke="black" stroke-width="0.2" stroke-linecap="butt" fill="black"/>
    <rect x="233.33" y="55.56" width="11.11" height="11.11" stroke="black" stroke-width="0.2" stroke-linecap="butt" fill="black"/>
    <rect x="233.33" y="66.67" width="11.11" height="11.11" stroke="black" stroke-width="0.2" stroke-linecap="butt" fill="black"/>
    <rect x="233.33" y="77.78" width="11.11" height="11.11" stroke="black" stroke-width="0.2" stroke-linecap="butt" fill="black"/>
    <rect x="233.33" y="100.00" width="11.11" height="11.11" stroke="black" stroke-width="0.2" stroke-linecap="butt" fill="black"/>
    <rect x="233.33" y="144.44" width="11.11" height="11.11" stroke="black" stroke-width="0.2" stroke-linecap="butt" fill="black"/>
    <rect x="233.33" y="166.67" width="11.11" height="11.11" stroke="black" stroke-width="0.2" stroke-linecap="butt" fill="black"/>
    <rect x="233.33" y="177.78" width="11.11" height="11.11" stroke="black" stroke-width="0.2" stroke-linecap="butt" fill="black"/>
    <rect x="233.33" y="188.89" width="11.11" height="11.11" stroke="black" stroke-width="0.2" stroke-linecap="butt" fill="black"/>
    <rect x="233.33" y="200.00" width="11.11" height="11.11" stroke="black" stroke-width="0.2" stroke-linecap="butt" fill="black"/>
    <rect x="233.33" y="211.11" width="11.11" height="11.11" stroke="black" stroke-width="0.2" stroke-linecap="butt" fill="black"/>
    <rect x="233.33" y="222.22" width="11.11" height="11.11" stroke="black" stroke-width="0.2" stroke-linecap="butt" fill="black"/>
    <rect x="233.33" y="233.33" width="11.11" height="11.11" stroke="black" stroke-width="0.2" stroke-linecap="butt" fill="black"/>
    <rect x="233.33" y="244.44" width="11.11" height="11.11" stroke="black" stroke-width="0.2" stroke-linecap="butt" fill="black"/>
    <rect x="233.33" y="255.56" width="11.11" height="11.11" stroke="black" stroke-width="0.2" stroke-linecap="butt" fill="black"/>
    <rect x="244.44" y="33.33" width="11.11" height="11.11" stroke="black" stroke-width="0.2" stroke-linecap="butt" fill="black"/>
    <rect x="244.44" y="100.00" width="11.11" height="11.11" stroke="black" stroke-width="0.2" stroke-linecap="butt" fill="black"/>
    <rect x="244.44" y="133.33" width="11.11" height="11.11" stroke="black" stroke-width="0.2" stroke-linecap="butt" fill="black"/>
    <rect x="244.44" y="144.44" width="11.11" height="11.11" stroke="black" stroke-width="0.2" stroke-linecap="butt" fill="black"/>
    <rect x="244.44" y="166.67" width="11.11" height="11.11" stroke="black" stroke-width="0.2" stroke-linecap="butt" fill="black"/>
    <rect x="244.44" y="188.89" width="11.11" height="11.11" stroke="black" stroke-width="0.2" stroke-linecap="butt" fill="black"/>
    <rect x="244.44" y="200.00" width="11.11" height="11.11" stroke="black" stroke-width="0.2" stroke-linecap="butt" fill="black"/>
    <rect x="244.44" y="233.33" width="11.11" height="11.11" stroke="black" stroke-width="0.2" stroke-linecap="butt" fill="black"/>
    <rect x="255.56" y="33.33" width="11.11" height="11.11" stroke="black" stroke-width="0.2" stroke-linecap="butt" fill="black"/>
    <rect x="255.56" y="44.44" width="11.11" height="11.11" stroke="black" stroke-width="0.2" stroke-linecap="butt" fill="black"/>
    <rect x="255.56" y="55.56" width="11.11" height="11.11" stroke="black" stroke-width="0.2" stroke-linecap="butt" fill="black"/>
    <rect x="255.56" y="66.67" width="11.11" height="11.11" stroke="black" stroke-width="0.2" stroke-linecap="butt" fill="black"/>
    <rect x="255.56" y="77.78" width="11.11" height="11.11" stroke="black" stroke-width="0.2" stroke-linecap="butt" fill="black"/>
    <rect x="255.56" y="88.89" width="11.11" height="11.11" stroke="black" stroke-width="0.2" stroke-linecap="butt" fill="black"/>
    <rect x="255.56" y="100.00" width="11.11" height="11.11" stroke="black" stroke-width="0.2" stroke-linecap="butt" fill="black"/>
    <rect x="255.56" y="133.33" width="11.11" height="11.11" stroke="black" stroke-width="0.2" stroke-linecap="butt" fill="black"/>
    <rect x="255.56" y="144.44" width="11.11" height="11.11" stroke="black" stroke-width="0.2" stroke-linecap="butt" fill="black"/>
    <rect x="255.56" y="155.56" width="11.11" height="11.11" stroke="black" stroke-width="0.2" stroke-linecap="butt" fill="black"/>
    <rect x="255.56" y="188.89" width="11.11" height="11.11" stroke="black" stroke-width="0.2" stroke-linecap="butt" fill="black"/>
    <rect x="255.56" y="233.33" width="11.11" height="11.11" stroke="black" stroke-width="0.2" stroke-linecap="butt" fill="black"/>
    <rect x="255.56" y="244.44" width="11.11" height="11.11" stroke="black" stroke-width="0.2" stroke-linecap="butt" fill="black"/>
  </g>
</svg>
